<?xml version="1.0" encoding="UTF-8"?>
<svg width="354px" height="181px" viewBox="0 0 354 181" version="1.1" xmlns="http://www.w3.org/2000/svg" xmlns:xlink="http://www.w3.org/1999/xlink">
    <!-- Generator: Sketch 52.5 (67469) - http://www.bohemiancoding.com/sketch -->
    <title>Assist Me Card</title>
    <desc>Created with Sketch.</desc>
    <defs>
        <rect id="path-1" x="0" y="0" width="354" height="181" rx="8"></rect>
    </defs>
    <g id="Page-1" stroke="none" stroke-width="1" fill="none" fill-rule="evenodd">
        <g id="Logos-and-Colors" transform="translate(-105.000000, -793.000000)">
            <g id="Assist-Me-Card" transform="translate(105.000000, 793.000000)">
                <g id="Assist-Me">
                    <mask id="mask-2" fill="white">
                        <use xlink:href="#path-1"></use>
                    </mask>
                    <use id="Perfect-Properties-Card" fill="#3573A1" fill-rule="nonzero" xlink:href="#path-1"></use>
                </g>
                <g id="Logo" transform="translate(32.000000, 30.000000)">
                    <text id="Assist-Me" font-family="AvenirNext-Regular, Avenir Next" font-size="48" font-weight="normal" fill="#FFFFFF">
                        <tspan x="43" y="72">Assist Me</tspan>
                    </text>
                    <g id="Group-4">
                        <g id="Group-Copy" transform="translate(13.000000, 0.000000)">
                            <rect id="Rectangle-10" stroke="#3573A1" fill="#FFFFFF" x="0.5" y="0.5" width="38" height="29" rx="8"></rect>
                            <polyline id="Triangle" stroke="#3573A1" fill="#FFFFFF" transform="translate(27.162738, 31.180038) rotate(-89.000000) translate(-27.162738, -31.180038) " points="29.3369203 36.7497498 22.5739782 36.7497498 30.5739782 25.6103254 31.7514982 27.2499374"></polyline>
                            <rect id="Rectangle-2" fill="#FFFFFF" x="20" y="21" width="12" height="8"></rect>
                            <path d="M33.0834779,29.90498 C32.7943167,29.6366511 32.5051554,29.3683222 32.2159942,29.0999933" id="Path-2" stroke="#3573A1" transform="translate(32.715994, 29.599993) rotate(46.000000) translate(-32.715994, -29.599993) "></path>
                            <path d="M31.922234,28.3170981 C31.9636796,28.460789 32.0051252,28.60448 32.0465709,28.7481709" id="Path-3" stroke="#FFFFFF" transform="translate(32.422234, 28.817098) rotate(287.000000) translate(-32.422234, -28.817098) "></path>
                        </g>
                        <g id="Group-3" transform="translate(0.000000, 13.000000)">
                            <g id="Group">
                                <rect id="Rectangle-10" stroke="#3573A1" fill="#FFFFFF" x="0.5" y="0.5" width="38" height="29" rx="8"></rect>
                                <polyline id="Triangle" stroke="#3573A1" fill="#FFFFFF" transform="translate(27.162738, 31.180038) rotate(-89.000000) translate(-27.162738, -31.180038) " points="29.3369203 36.7497498 22.5739782 36.7497498 30.5739782 25.6103254 31.7514982 27.2499374"></polyline>
                                <rect id="Rectangle-2" fill="#FFFFFF" x="20" y="21" width="12" height="8"></rect>
                                <path d="M33.0834779,29.90498 C32.7943167,29.6366511 32.5051554,29.3683222 32.2159942,29.0999933" id="Path-2" stroke="#3573A1" transform="translate(32.715994, 29.599993) rotate(46.000000) translate(-32.715994, -29.599993) "></path>
                                <path d="M31.922234,28.3170981 C31.9636796,28.460789 32.0051252,28.60448 32.0465709,28.7481709" id="Path-3" stroke="#FFFFFF" transform="translate(32.422234, 28.817098) rotate(287.000000) translate(-32.422234, -28.817098) "></path>
                            </g>
                            <g id="Group-2" transform="translate(9.000000, 8.000000)" stroke="#3573A0" stroke-linecap="square" stroke-width="3">
                                <path d="M0.495136266,1.94117647 L20.5065451,1.94117647" id="Line-3"></path>
                                <path d="M0.494922865,6.94117647 L20.5062474,6.94117647" id="Line-3-Copy"></path>
                                <path d="M0.493658136,11.9411765 L20.5078031,11.9411765" id="Line-3-Copy-2"></path>
                            </g>
                        </g>
                    </g>
                </g>
            </g>
        </g>
    </g>
</svg>